<?xml version="1.0" standalone="no"?>
<!DOCTYPE svg PUBLIC "-//W3C//DTD SVG 20010904//EN"
 "http://www.w3.org/TR/2001/REC-SVG-20010904/DTD/svg10.dtd">
<svg version="1.0" xmlns="http://www.w3.org/2000/svg"
 width="450.000000pt" height="450.000000pt" viewBox="0 0 450.000000 450.000000"
 preserveAspectRatio="xMidYMid meet">
<metadata>
Created by potrace 1.10, written by Peter Selinger 2001-2011
</metadata>
<g transform="translate(0.000000,450.000000) scale(0.100000,-0.100000)"
fill="#000000" stroke="none">
<path d="M1176 2906 c-17 -19 -47 -65 -66 -102 -19 -38 -48 -91 -64 -119 -39
-69 -123 -236 -130 -260 -9 -32 31 -69 139 -128 55 -30 115 -63 134 -74 73
-40 59 -43 -232 -43 -255 0 -276 -1 -298 -19 l-24 -19 22 -44 c13 -23 50 -81
83 -128 32 -47 60 -93 60 -102 0 -10 -28 -58 -62 -108 -35 -50 -71 -104 -81
-120 -26 -41 -15 -67 31 -77 20 -4 734 -7 1587 -5 1501 2 1550 2 1568 21 18
17 18 20 3 50 -9 17 -45 73 -80 124 -34 50 -66 97 -69 103 -6 10 78 146 123
199 9 11 23 35 30 54 13 31 12 35 -11 52 -22 17 -47 19 -341 19 -175 0 -318 4
-318 8 0 8 155 97 242 141 43 21 78 61 78 89 0 26 -49 123 -203 402 -75 138
-80 139 -243 54 -153 -79 -224 -124 -256 -163 -14 -16 -42 -34 -63 -40 -34 -9
-45 -6 -129 34 -247 118 -249 118 -338 86 -29 -11 -80 -27 -113 -36 -33 -9
-64 -20 -70 -25 -10 -7 -19 -7 -82 6 -23 4 -63 -4 -135 -26 -57 -18 -111 -36
-120 -41 -43 -22 -109 0 -133 45 -17 32 -29 41 -135 99 -255 140 -260 141
-304 93z m236 -93 c168 -92 178 -100 174 -124 -4 -23 0 -27 59 -46 l64 -21
133 44 c128 42 193 54 186 35 -2 -5 -58 -50 -124 -99 -97 -72 -123 -96 -129
-120 -8 -39 16 -87 55 -107 54 -28 91 -19 260 61 l159 77 223 -180 c176 -142
231 -181 263 -187 22 -4 38 -6 35 -3 -39 36 -503 407 -509 407 -5 0 -78 -34
-162 -75 -182 -88 -221 -95 -263 -44 -45 53 -43 57 124 176 114 82 136 94 250
132 69 22 133 41 142 41 17 0 91 -33 256 -114 l94 -45 61 23 c49 18 62 28 63
45 1 12 3 23 5 25 17 14 358 196 366 196 18 0 288 -493 279 -509 -3 -5 -88
-53 -188 -106 -181 -98 -182 -98 -199 -77 l-17 21 -77 -44 c-42 -24 -78 -45
-80 -47 -2 -2 206 -2 461 0 255 2 464 0 464 -4 0 -4 -6 -15 -14 -23 -44 -49
-175 -255 -169 -264 4 -7 47 -70 95 -140 48 -71 88 -129 88 -130 0 -1 -715 -2
-1590 -2 -875 0 -1590 1 -1590 2 0 1 40 59 88 130 48 70 91 133 95 140 6 9
-125 215 -169 264 -8 8 -14 19 -14 23 0 4 189 6 419 4 231 -2 418 -2 416 0 -2
2 -37 23 -78 46 -71 40 -75 42 -86 24 -7 -11 -17 -18 -24 -16 -29 7 -359 191
-363 202 -7 19 258 506 275 506 8 0 95 -44 193 -97z"/>
<path d="M2352 2222 c89 -75 119 -94 117 -74 0 8 -183 144 -202 151 -7 2 32
-33 85 -77z"/>
<path d="M1753 2230 c-27 -11 -78 -83 -62 -89 6 -2 25 13 44 33 46 51 104 46
126 -11 l10 -27 19 32 c33 54 106 53 132 -3 6 -14 17 -25 25 -25 17 0 16 4 -2
40 -28 55 -94 67 -141 26 l-28 -23 -20 24 c-24 26 -70 37 -103 23z"/>
<path d="M2170 2155 c7 -8 17 -15 22 -15 6 0 5 7 -2 15 -7 8 -17 15 -22 15 -6
0 -5 -7 2 -15z"/>
<path d="M1063 2090 c-47 -15 -83 -63 -83 -112 0 -42 9 -54 114 -144 43 -37
47 -70 11 -104 -31 -29 -100 -32 -140 -6 -30 20 -30 20 -39 -12 -6 -19 -2 -25
28 -37 107 -45 226 12 226 108 0 42 -27 75 -113 140 -89 67 3 161 117 117 21
-8 26 -6 31 11 4 12 3 25 -2 30 -13 13 -115 19 -150 9z"/>
<path d="M2505 1893 c-21 -109 -40 -205 -43 -214 -3 -13 3 -17 22 -15 29 1 30
4 46 96 19 109 6 100 139 100 l118 0 -18 -87 c-23 -112 -23 -108 5 -108 23 0
25 7 65 205 23 113 41 208 41 213 0 4 -11 7 -24 7 -26 0 -27 -1 -47 -117 l-12
-73 -119 0 c-88 0 -118 3 -118 13 0 6 9 49 19 95 l18 82 -26 0 c-27 0 -27 -1
-66 -197z"/>
<path d="M2980 2075 c-14 -17 -5 -45 17 -52 16 -6 44 27 41 46 -4 22 -42 26
-58 6z"/>
<path d="M2333 2020 c-16 -6 -23 -18 -23 -35 0 -18 -7 -28 -25 -35 -29 -11
-34 -40 -6 -40 17 0 17 -3 4 -52 -22 -84 -28 -165 -13 -183 29 -35 143 -5 133
35 -6 24 -11 24 -37 5 -11 -8 -28 -15 -38 -15 -23 0 -23 20 -2 128 l17 82 42
0 c30 0 45 5 49 16 9 24 9 24 -40 24 -48 0 -47 -3 -29 58 7 24 2 26 -32 12z"/>
<path d="M1308 1953 c-10 -2 -20 -14 -23 -26 -31 -140 -55 -251 -55 -258 0 -5
10 -7 23 -6 22 4 26 14 52 135 6 25 68 97 98 114 14 7 23 6 34 -4 12 -13 11
-28 -7 -114 -12 -54 -23 -106 -26 -115 -4 -13 2 -17 20 -15 23 1 27 8 42 78
18 84 52 136 106 164 51 26 56 9 30 -114 -27 -131 -27 -129 0 -127 20 1 25 13
46 117 27 129 25 164 -13 174 -36 9 -68 -2 -105 -36 -35 -33 -45 -37 -37 -16
9 22 -21 56 -49 56 -31 0 -60 -15 -98 -49 l-28 -26 7 25 c4 14 10 31 12 38 5
12 1 13 -29 5z"/>
<path d="M1834 1946 c-39 -17 -88 -77 -103 -125 -41 -139 33 -211 130 -124 37
34 40 35 35 12 -8 -32 6 -53 31 -45 15 5 18 13 15 39 -1 17 8 80 21 139 l24
106 -30 6 c-46 9 -89 6 -123 -8z m96 -39 c0 -43 -35 -123 -72 -163 -54 -59
-82 -57 -86 4 -4 55 30 127 72 153 36 22 86 25 86 6z"/>
<path d="M2098 1953 c-10 -2 -20 -14 -23 -26 -30 -134 -55 -251 -55 -257 0 -4
11 -7 24 -6 22 1 26 8 37 66 6 36 20 79 31 97 26 43 75 83 93 77 8 -4 15 -2
15 2 0 5 3 19 6 32 11 39 -34 28 -79 -20 -36 -38 -40 -40 -34 -16 4 14 10 33
13 42 6 16 3 17 -28 9z"/>
<path d="M3116 1951 c-16 -6 -25 -33 -47 -137 -34 -158 -34 -151 -7 -149 19 1
25 12 38 71 24 104 79 175 128 166 6 -2 12 1 12 5 0 4 3 18 6 31 5 18 2 22
-17 22 -28 -1 -55 -20 -82 -57 l-19 -28 6 27 c3 14 9 33 12 42 7 17 0 19 -30
7z"/>
<path d="M3365 1951 c-39 -16 -86 -75 -101 -128 -28 -95 9 -163 88 -163 48 0
111 29 103 48 -3 7 -5 17 -5 22 0 5 -17 -1 -38 -12 -50 -28 -86 -19 -101 24
-6 17 -10 32 -9 33 2 1 27 10 56 20 75 24 122 67 122 111 0 23 -6 37 -19 44
-23 12 -68 12 -96 1z m60 -41 c13 -21 -7 -49 -50 -69 -60 -28 -68 -27 -50 8
26 51 84 86 100 61z"/>
<path d="M2955 1938 c-5 -18 -55 -259 -55 -267 0 -4 10 -7 23 -6 20 1 25 14
53 143 l31 142 -24 0 c-13 0 -25 -6 -28 -12z"/>
</g>
</svg>
